<?xml version="1.0" encoding="UTF-8" standalone="no"?>
<!-- Created with Inkscape (http://www.inkscape.org/) -->

<svg
   version="1.1"
   id="svg1"
   width="4547.5894"
   height="717.55389"
   viewBox="0 0 4547.5894 717.55388"
   sodipodi:docname="bedrockguidocs.svg"
   inkscape:version="1.4 (86a8ad7, 2024-10-11)"
   xmlns:inkscape="http://www.inkscape.org/namespaces/inkscape"
   xmlns:sodipodi="http://sodipodi.sourceforge.net/DTD/sodipodi-0.dtd"
   xmlns="http://www.w3.org/2000/svg"
   xmlns:svg="http://www.w3.org/2000/svg">
  <sodipodi:namedview
     id="namedview1"
     pagecolor="#505050"
     bordercolor="#ffffff"
     borderopacity="1"
     inkscape:showpageshadow="0"
     inkscape:pageopacity="0"
     inkscape:pagecheckerboard="1"
     inkscape:deskcolor="#505050"
     inkscape:zoom="0.12600082"
     inkscape:cx="1841.2578"
     inkscape:cy="539.67902"
     inkscape:window-width="1280"
     inkscape:window-height="649"
     inkscape:window-x="-8"
     inkscape:window-y="-8"
     inkscape:window-maximized="1"
     inkscape:current-layer="svg1" />
  <defs
     id="defs1" />
  <g
     id="g1"
     transform="translate(-45.136711,-430.35432)">
    <g
       id="g10"
       transform="matrix(1.5112698,0,0,1.5112698,-1457.0256,-4235.0829)"
       style="stroke-width:0.661695">
      <path
         id="path7"
         style="fill:#6c93cc;stroke-width:0.661695"
         d="m 3909.3496,3087.1309 c -23.9212,-0.5915 -48.7192,6.6834 -66.5156,20.998 -8.82,7.0943 -9.9236,8.1882 -16.7246,16.5703 -10.8871,13.418 -16.499,32.8036 -15.1016,52.1699 1.5031,20.8318 7.5332,34.478 21.418,48.4668 14.2867,14.3939 26.0588,21.3758 59.8574,35.502 8.8788,3.7109 21.5426,9.4934 28.1426,12.8496 28.3838,14.4338 39.9855,36.9175 33.3691,64.668 -2.7583,11.5691 -6.6441,18.6268 -14.5371,26.4043 -23.8538,23.5051 -69.3468,18.9296 -85.2363,-8.5723 -3.7868,-6.5542 -8.2612,-20.2868 -9.5293,-29.248 -1.0559,-7.4621 -0.7738,-7.4016 -17.4668,-3.6504 -6.5629,1.4749 -16.0994,3.5894 -21.1914,4.7011 -5.092,1.1116 -9.4425,2.2062 -9.668,2.4317 -1.6983,1.6983 11.6014,42.5413 14.4199,44.2832 0.6662,0.4118 2.3482,2.958 3.7364,5.6582 3.7332,7.2621 16.7277,21.0053 25.2773,26.7324 14.8895,9.9739 27.7596,14.3528 46.9609,15.9785 36.2387,3.0682 62.9709,-5.8467 86.9375,-28.9941 23.7142,-22.9036 34.2089,-57.3124 27.6954,-90.8067 -3.6582,-18.8116 -9.623,-30.7179 -21.8204,-43.5586 -14.3608,-15.1182 -31.3263,-25.4278 -62.2792,-37.8437 -28.9728,-11.6216 -38.2541,-16.2838 -46.4141,-23.3203 -20.0591,-17.2973 -14.7417,-48.0167 10.6074,-61.2754 12.407,-6.4894 35.0041,-7.4097 47.5313,-1.9356 8.9566,3.9139 12.9811,7.334 20.4492,17.377 3.8165,5.1324 7.5893,9.1587 8.3828,8.9453 3.4709,-0.9334 35.3722,-20.5218 35.4062,-21.7402 0.072,-2.6326 -9.8408,-15.9644 -17.8457,-24 -9.7023,-9.7398 -14.8124,-13.5646 -25.4511,-19.0508 -12.0206,-6.1987 -26.0575,-9.3854 -40.4102,-9.7402 z m -648.9434,0.4218 c -4.6264,0.1038 -8.4072,0.3748 -10.6464,0.8399 -3.6667,0.7615 -11.7667,2.4231 -18,3.6914 -6.2334,1.2683 -11.9328,2.7261 -12.666,3.2402 -0.7333,0.5141 -3.7346,1.6916 -6.668,2.6153 -35.0718,11.044 -77.7895,49.6719 -94.3692,85.3339 -5.7373,12.3407 -7.399,16.9265 -11.2519,31.0567 -3.5069,12.8609 -3.7091,15.115 -3.6641,40.9433 0.051,29.3744 1.7714,40.4229 9.5508,61.334 19.3922,52.1266 70.9636,94.7798 126.4024,104.5469 12.6138,2.2223 45.4572,2.6262 58.6425,0.7207 16.6763,-2.4099 31.5412,-6.6648 42.4551,-12.1523 66.3031,-33.3365 100.9295,-85.9391 100.8945,-153.2754 -0.015,-29.2749 -5.3547,-52.3089 -17.6171,-76.0098 -24.0023,-46.3909 -68.3356,-80.3772 -117.3653,-89.9746 -10.3266,-2.0214 -31.8178,-3.2214 -45.6973,-2.9102 z m 387.8399,0.055 c -4.7685,0.1512 -8.5882,0.4418 -10.4863,0.8438 -3.6667,0.7766 -11.4674,2.3717 -17.334,3.5429 -26.0656,5.2037 -51.9838,18.9682 -75.1348,39.9043 -6.3006,5.6977 -21.448,23.893 -27.7851,33.375 -10.2156,15.2852 -20.0987,39.3266 -23.0196,56 -0.8992,5.1334 -2.1805,11.8492 -2.8476,14.9239 -1.634,7.5315 -1.5385,34.585 0.1523,43.3437 4.4113,22.8518 6.0641,29.2875 10.0899,39.2735 9.3498,23.1921 19.6443,38.5032 38.4414,57.1777 22.8658,22.7167 55.1113,39.9273 83.4902,44.5625 5.4712,0.8937 10.8473,1.802 11.9473,2.0176 1.1,0.2155 10.7716,0.4618 21.4922,0.5468 29.9146,0.2373 50.776,-4.244 76.7402,-16.4824 l 12.2344,-5.7656 0.1445,-27.4649 c 0.08,-15.1059 -0.2227,-27.4667 -0.6738,-27.4667 -0.451,0 -5.7226,3.5439 -11.7129,7.875 -22.6188,16.3537 -39.5216,23.3624 -61.7305,25.5976 -31.4797,3.1682 -60.8925,-4.4518 -84.4941,-21.8906 -21.3189,-15.7521 -37.6087,-39.092 -45.3047,-64.9141 -3.6834,-12.359 -5.2372,-45.3034 -2.7969,-59.3164 4.1459,-23.8075 15.3602,-46.0975 32.1016,-63.8105 15.5278,-16.4289 29.393,-25.6444 48.2382,-32.0625 12.3529,-4.207 34.0169,-6.6861 47.7618,-5.4649 12.273,1.0903 28.1781,4.2993 29.914,6.0352 0.707,0.707 2.2168,1.289 3.3535,1.289 3.5843,0.01 24.3405,11.1428 34.252,18.3789 5.2358,3.8226 9.8865,6.9512 10.334,6.9512 0.4476,0 0.8125,-11.9078 0.8125,-26.4609 0,-30.2317 0.988,-27.6764 -13.332,-34.5352 -23.0293,-11.0302 -41.0145,-15.2205 -68.668,-16.0039 -5.6945,-0.1613 -11.4112,-0.1511 -16.1797,0 z m -825.0254,5.084 c -8.8812,0.017 -14.8863,0.1508 -15.873,0.3984 l -3.5879,0.9004 v 161.9493 161.9492 l 29,0.3965 c 45.4216,0.6208 80.1499,-1.1519 99.0468,-5.0547 39.1986,-8.0955 78.5102,-36.1426 100.9239,-72.0039 8.7677,-14.028 17.6958,-39.7577 20.2597,-58.3828 1.8255,-13.2644 1.8448,-39.6606 0.039,-54.2715 -7.1547,-57.8933 -48.4428,-107.7706 -103.7363,-125.3125 -22.7782,-7.2264 -42.0935,-9.3579 -92.9453,-10.2618 -12.4883,-0.2221 -24.2457,-0.3235 -33.127,-0.3066 z m 446.6875,39.582 c 11.1224,-0.1356 22.4171,0.3451 28.5176,1.5098 43.3168,8.2703 81.0268,45.2217 92.2246,90.3672 4.4917,18.1089 4.2903,45.7288 -0.4668,64 -3.1754,12.196 -11.6421,32.0464 -15.6406,36.6699 -0.8494,0.9821 -2.8741,3.6479 -4.4981,5.9238 -4.7481,6.654 -11.7916,14.0392 -20.3261,21.3106 -18.6085,15.8542 -39.9101,24.8789 -64.1524,27.1777 -20.6554,1.9588 -32.3828,0.9978 -49.0586,-4.0176 -32.7989,-9.8646 -64.7138,-38.1362 -76.6953,-67.9414 -1.6214,-4.0333 -3.4675,-8.3279 -4.1016,-9.5429 -4.815,-9.2268 -7.2437,-49.9735 -4.041,-67.791 8.24,-45.8416 44.9042,-84.4112 90.7559,-95.4727 5.4101,-1.3052 16.3601,-2.0577 27.4824,-2.1934 z m -407.1836,4.4493 c 10.8962,0.067 30.5064,1.4066 44.25,3.2207 54.6588,7.2145 89.9672,40.8783 98.8984,94.291 3.3007,19.7395 1.0643,49.8414 -4.6835,63.039 -0.6388,1.4667 -1.9423,4.7357 -2.8985,7.2637 -12.2606,32.4134 -46.4983,59.4573 -84.5312,66.7734 -4.4,0.8464 -20.15,1.8668 -35,2.2657 l -27,0.7246 v -118.1543 -118.1563 l 3.5136,-0.8808 c 1.1558,-0.2901 3.8191,-0.4092 7.4512,-0.3867 z m 416.8164,8.5351 c -34.3811,-2.4873 -70.9198,12.9954 -92.4199,40.3203 -13.5049,17.1634 -21.9471,39.5944 -23.0078,61.1309 -1.289,26.1727 3.7652,46.6415 16.3008,66.0195 3.2773,5.0663 6.4196,9.1929 6.9843,9.1699 0.5648,-0.023 2.0331,-1.4267 3.2618,-3.1191 2.1076,-2.9032 2.0852,-3.2974 -0.4024,-6.959 -13.145,-19.3485 -19.8619,-46.4054 -17.0625,-68.7305 4.3766,-34.9047 24.537,-63.6152 55.1797,-78.582 20.2161,-9.8742 38.0724,-12.5707 59.6465,-9.0078 8.6971,1.4363 9.5869,1.3632 11.2578,-0.9219 3.041,-4.1587 2.1062,-5.4461 -5.1855,-7.1367 -4.7735,-1.1067 -9.6412,-1.8283 -14.5528,-2.1836 z m 61.5625,26.0156 c -0.57,0 -2.0528,1.5518 -3.2949,3.4473 -2.238,3.4157 -2.2047,3.4982 3.7246,9.3438 21.8189,21.5106 32.9711,57.6005 26.9648,87.2597 -4.7366,23.389 -12.8442,39.0143 -28.0722,54.0996 -11.9028,11.7914 -29.867,22.546 -42,25.1465 -25.1677,5.3945 -50.2315,3.7029 -67.0196,-4.5234 l -5.0214,-2.459 -2.7559,3.8691 -2.7559,3.8692 6.4434,2.9004 c 3.5436,1.5952 11.2428,4.2719 17.1094,5.9472 9.2511,2.6414 13.1446,2.9942 29.334,2.6563 17.0378,-0.3555 19.7043,-0.7603 30.5644,-4.6231 30.4905,-10.8451 51.8116,-30.0589 64.9785,-58.5586 7.3164,-15.8364 9.3904,-25.9239 9.4004,-45.7089 0.011,-23.3253 -5.2819,-41.5451 -17.3984,-59.8926 -5.0664,-7.6719 -18.4618,-22.7735 -20.2012,-22.7735 z m -189.6445,217.3399 c -0.5249,0.2309 -1.0222,0.7256 -1.6836,1.3867 -2.6461,2.6445 -2.6421,2.6583 2,6.7461 2.5582,2.2528 7.3266,6.0878 10.5957,8.5215 5.4042,4.023 6.0985,4.2233 7.6484,2.2148 1.4814,-1.9197 0.4393,-3.3825 -7.9453,-11.1699 -7.2214,-6.7072 -9.0405,-8.3919 -10.6152,-7.6992 z m -21.6738,9.1875 c -0.5402,0.1054 -1.0633,0.4159 -1.6993,0.8613 -1.5054,1.0544 -9.844,10.1728 -18.5293,20.2637 -8.6852,10.0909 -16.1146,18.647 -16.5097,19.0137 -0.3951,0.3667 -6.0968,6.9457 -12.6699,14.6191 -6.5732,7.6735 -23.7531,27.6654 -38.1778,44.4277 -14.4246,16.7623 -27.1733,32.4762 -28.332,34.918 -5.0224,10.5839 -0.8562,20.3555 11.2246,26.3262 v 0 c 4.0331,1.9927 9.6017,3.642 12.375,3.666 10.5303,0.089 12.8279,-1.8437 40.3535,-33.957 5.6572,-6.6 12.1622,-14.0994 14.455,-16.6661 2.2928,-2.5666 7.163,-8.2589 10.8243,-12.6484 3.6613,-4.3895 8.5288,-10.0888 10.8144,-12.666 26.7538,-30.1654 46.4768,-53.5165 48.2559,-57.1309 1.9961,-4.0549 2.0014,-4.5499 0.066,-5.6328 -4.7375,-2.6512 -16.3317,-11.9621 -23.6445,-18.9863 -5.4168,-5.2031 -7.1882,-6.7245 -8.8086,-6.4082 z" />
      <path
         id="path6"
         style="fill:#8c8c8d;stroke-width:0.661695"
         d="m 1593.0938,3273.3164 c -10.0943,0.031 -16.0465,0.74 -21.334,2.541 -28.3383,9.6525 -46.86,41.4113 -40.9766,70.2617 2.99,14.6618 6.9269,21.9552 17.5547,32.5137 9.9177,9.8529 14.5548,12.6703 26.2598,15.9551 9.0584,2.5421 30.031,1.8755 38.4726,-1.2227 11.094,-4.0716 11.4119,-4.513 10.9141,-15.2187 l -0.4414,-9.5098 -4.2246,3.1602 c -10.2178,7.645 -21.1213,10.3997 -34.127,8.6211 -14.8763,-2.0345 -26.751,-10.7039 -33.5352,-24.4844 -3.78,-7.6784 -4.208,-9.7696 -4.166,-20.2774 0.069,-17.1992 4.7105,-27.4654 17.3184,-38.3007 12.8647,-11.0559 36.9593,-11.6806 52.5898,-1.3633 2.7343,1.8048 5.3101,3.2812 5.7246,3.2812 0.4149,0 0.5769,-4.3488 0.3614,-9.664 l -0.3906,-9.6641 -8,-3.3359 c -6.8436,-2.8538 -10.0239,-3.329 -22,-3.293 z m -144.586,0.5078 c -16.6928,-0.01 -32.4375,6.526 -45.0937,19.0156 -18.921,18.6718 -23.1559,46.3195 -10.9317,71.3594 7.2612,14.8736 22.4607,27.0713 39.416,31.6309 31.3635,8.4341 65.4522,-9.6386 75.9981,-40.291 5.0084,-14.5573 2.6298,-38.1455 -5.1172,-50.7286 -7.9682,-12.9427 -24.0492,-25.3368 -37.3418,-28.7812 -5.696,-1.476 -11.3654,-2.2033 -16.9297,-2.2051 z m 267.8711,0.1153 -22.4101,23.3339 c -12.3255,12.8334 -22.9648,23.334 -23.6426,23.334 -0.7031,0 -1.2419,-9.3089 -1.2539,-21.6679 -0.011,-11.9167 -0.5168,-22.4512 -1.125,-23.4102 -0.7461,-1.1764 -3.4515,-1.6088 -8.3145,-1.332 l -7.207,0.4101 -0.4356,15.3321 c -0.2393,8.4333 -0.019,35.2845 0.4883,59.6679 l 0.9238,44.3321 h 7.8457 7.8458 v -25.0665 c -1e-4,-24.0639 0.6177,-28.2656 4.1542,-28.2656 0.7641,0 14.9522,16.5348 28.0176,32.6524 1.1947,1.4738 5.4315,6.5809 9.416,11.3476 l 7.2442,8.666 9.789,0.3965 c 5.383,0.2177 10.2848,-0.1031 10.8946,-0.7129 0.6098,-0.6098 -1.4883,-4.0892 -4.6641,-7.7304 -15.7979,-18.1129 -46.5038,-54.8281 -47.1426,-56.3692 -0.4352,-1.05 9.3461,-11.8664 24.4493,-27.0351 13.8461,-13.9061 25.3747,-25.8674 25.6191,-26.5821 0.2638,-0.771 -3.8135,-1.3007 -10.0254,-1.3007 z m -418.6191,3.3339 0.029,13 c 0.017,7.15 0.1673,33.9994 0.3339,59.6661 l 0.3028,46.666 h 7.9707 7.9707 l 0.3633,-24.3145 c 0.3089,-20.6659 0.6713,-24.3771 2.4199,-24.7129 1.8698,-0.3591 11.6985,12.5753 31.3906,41.3106 l 5.2188,7.6172 10.4121,0.051 c 11.3725,0.055 11.1916,0.3508 4.8711,-7.9492 -18.2318,-23.942 -30.5972,-41.6205 -29.9004,-42.748 0.464,-0.7508 3.203,-2.3094 6.0859,-3.4629 6.5074,-2.6037 14.8809,-11.9162 16.9629,-18.8653 5.4561,-18.2108 -1.9003,-35.2275 -18.4316,-42.6347 -6.6258,-2.9689 -9.1978,-3.3031 -26.666,-3.4551 z m -143.334,0.6192 -32.332,0.3574 -32.334,0.3574 -0.4043,50.666 c -0.2222,27.8667 -0.02,55.028 0.4492,60.3575 l 0.8535,9.6894 32.2168,-0.3574 32.2188,-0.3555 0.3984,-7.6679 c 0.2902,-5.5638 -0.074,-7.6983 -1.332,-7.7813 -0.9533,-0.063 -11.4845,-0.016 -23.4024,0.1035 -16.9421,0.1701 -21.8136,-0.169 -22.3281,-1.5527 -0.3619,-0.9733 -0.8113,-10.4683 -0.9981,-21.1016 l -0.3378,-19.334 23.332,-0.666 23.334,-0.6679 0.4316,-4.5176 c 0.2373,-2.4848 0.053,-6.0216 -0.4082,-7.8594 l -0.8379,-3.3398 -21.5918,0.8339 c -11.8762,0.4597 -22.3658,0.3486 -23.3086,-0.248 -1.2653,-0.801 -1.6131,-4.8916 -1.332,-15.6426 l 0.3809,-14.5586 23.666,-0.3652 23.666,-0.3633 v -7.9941 z m 47.0254,0.062 c -19.9618,-0.015 -20.3204,0.035 -21.0352,2.9844 -0.4,1.65 -0.4778,5.1012 -0.1738,7.6679 0.3041,2.5666 0.6192,28.2166 0.7012,57 l 0.1504,52.3321 18.332,-0.023 c 19.9125,-0.025 33.3941,-2.1733 42.1035,-6.7129 19.9723,-10.4101 31.5778,-29.9596 31.5488,-53.1386 -0.024,-18.6531 -5.8758,-32.8262 -18.2129,-44.1016 -13.7979,-12.6105 -25.0599,-15.9858 -53.414,-16.0078 z m -191.5684,1.2363 c -8.0655,-0.085 -15.29446,0.4762 -15.68944,1.7481 -0.28466,0.9167 -0.29373,27.9167 -0.0215,60 l 0.49414,58.3339 h 19.668 c 28.0458,0 38.6606,-3.8868 46.3515,-16.9707 3.2563,-5.5397 3.7403,-7.743 3.7403,-17.0293 0,-14.8184 -2.5622,-19.1528 -17.3145,-29.2754 -2.4547,-1.6844 -2.491,-1.9976 -0.4941,-4.2714 7.6762,-8.741 8.9361,-22.7298 3.1191,-34.6192 -3.8522,-7.8737 -9.2046,-12.2855 -19.1445,-15.7812 -3.7409,-1.3156 -12.6435,-2.0494 -20.709,-2.1348 z m 437.8692,10.7754 c 6.0062,-0.1074 12.0061,0.5893 16.4843,2.1152 7.3876,2.5172 19.5404,13.1099 24.1328,21.0352 7.2909,12.582 7.2608,33.0772 -0.066,45.5801 -5.0063,8.5426 -14.9784,17.1325 -23.6601,20.3808 -7.8527,2.938 -21.9645,3.7273 -28.8828,1.6153 -11.8285,-3.6111 -23.2271,-13.5291 -28.9571,-25.1973 -3.2941,-6.7078 -3.7008,-8.9773 -3.6308,-20.2227 0.069,-11.1526 0.5235,-13.5432 3.8125,-20 4.9692,-9.7549 15.0659,-19.169 24.2402,-22.6015 4.5077,-1.6866 10.5211,-2.5977 16.5274,-2.7051 z m -132.6582,3.3066 9.332,0.096 c 6.0988,0.062 10.8564,0.8915 13.7265,2.3965 12.3252,6.4631 12.8846,25.4586 0.9668,32.8242 -6.2063,3.8357 -22.8592,5.5409 -24.041,2.461 -0.4035,-1.0511 -0.565,-9.9827 -0.3593,-19.8457 z m -107.334,0.9278 c 20.5689,-0.8343 35.6624,7.2686 44.2168,23.7383 2.6964,5.1915 3.111,7.8866 3.082,20 -0.04,16.4058 -2.0586,21.5545 -12.584,32.08 -4.9907,4.9907 -8.3272,6.9782 -15.3535,9.1485 -5.6277,1.7382 -12.6191,2.7715 -18.7402,2.7715 h -9.7618 l -0.83,-7 c -0.4563,-3.85 -0.6497,-23.4994 -0.4297,-43.6661 l 0.4004,-36.666 z m -192.3145,0.7383 c 1.3405,-0.1028 3.1656,0.1034 5.6485,0.2812 9.5098,0.6812 15.3542,6.1761 16.6191,15.625 0.9515,7.1076 -1.7927,13.7785 -7.1504,17.3809 -3.315,2.2289 -6.4445,3.0468 -11.666,3.0468 h -7.1367 v -18 c 0,-14.9411 -0.3361,-18.0256 3.6855,-18.3339 z m -3.6855,50.6738 11.666,0.5879 c 17.8791,0.899 24.7273,6.0195 24.9101,18.6289 0.1035,7.1377 -3.1398,12.5906 -9.3632,15.7422 -4.1565,2.1048 -24.5502,3.6076 -26.2129,1.9316 -0.55,-0.5544 -1,-9.0817 -1,-18.9492 z" />
      <path
         id="path5"
         style="fill:#e7494e;stroke-width:0.661695"
         d="m 1966.3184,3087.7793 c -7.51,0.044 -15.0075,0.2751 -22.1602,0.709 -35.0577,2.1269 -57.3234,7.4499 -80.7617,19.3066 -43.8061,22.1601 -65.8246,50.0194 -78.1934,98.9395 -5.9777,23.6427 -5.9286,64.3706 0.1055,88.539 10.5714,42.3419 36.8944,75.5929 75.7852,95.7325 24.0208,12.4392 51.3395,19.339 87.332,22.0566 15.534,1.1728 59.1293,-1.7699 77.334,-5.2207 24.0756,-4.5636 55.5394,-13.2999 71.666,-19.8984 2.1837,-0.8935 2.334,-5.82 2.334,-76.8125 v -75.8575 h -62.6914 -62.6914 l 0.3574,31 0.3594,31 20.6093,0.3692 c 12.0159,0.2154 20.9584,0.9321 21.4434,1.7168 1.3573,2.1963 1.4897,35.6256 0.1445,36.457 -4.2369,2.6186 -22.8351,4.9719 -39.5488,5.0039 -28.1799,0.054 -47.204,-5.2571 -65.4727,-18.2812 -35.4211,-25.2523 -45.4653,-73.61 -24.1679,-116.3672 11.2039,-22.4933 33.2607,-39.3346 61.6582,-47.0801 8.5817,-2.3407 15.445,-3.0228 35.1093,-3.4922 39.9943,-0.9547 59.5687,3.398 95.2637,21.1856 9.2375,4.6032 13.2292,6.0043 13.6895,4.8046 0.3574,-0.9314 0.489,-17.2831 0.2929,-36.3378 l -0.3554,-34.6446 -7.334,-2.4472 c -15.0537,-5.0228 -42.7164,-12.3144 -61.0781,-16.0997 -13.8489,-2.855 -36.4993,-4.413 -59.0293,-4.2812 z m 667.3535,3.5312 c -23.5519,0.057 -44.1182,0.4396 -45.7012,0.8536 l -2.8769,0.7539 v 157.6211 c 0,86.6922 0.406,158.0312 0.9042,158.5293 0.4981,0.4976 21.9495,0.7471 47.668,0.5546 l 46.7598,-0.3496 0.3515,-157.3339 c 0.3309,-148.143 0.2159,-157.4327 -1.9668,-159.0333 -1.772,-1.2993 -12.405,-1.6737 -45.1386,-1.5957 z m -413.9531,0 c -22.0836,-0.057 -44.3157,0.1809 -45.8497,0.7695 -1.8948,0.7271 -2.1044,9.9034 -2.0644,90.334 0.025,49.2382 0.5903,95.5765 1.2578,102.9746 3.122,34.6032 13.9075,58.1547 37.4141,81.7032 24.1358,24.1788 59.7676,39.7134 101.2832,44.1562 6.9667,0.7456 14.7673,1.5807 17.334,1.8574 2.5665,0.2772 10.3653,0.2702 17.332,-0.016 61.1758,-2.5096 108.7021,-23.8917 136.1562,-61.2559 7.4782,-10.1777 14.1926,-24.0036 18.4024,-37.8964 6.112,-20.1698 6.7754,-32.9088 6.7754,-130.0196 v -91.2617 l -3,-0.7324 c -1.65,-0.4017 -22.8,-0.5623 -47,-0.3574 l -44,0.3711 -0.7989,85.3339 c -0.5155,55.1162 -1.3381,88.2018 -2.3242,93.4336 -2.8868,15.3155 -10.8314,33.875 -17.9355,41.9004 -4.5345,5.1224 -14.4205,12.7445 -19.6074,15.1172 -13.9164,6.3659 -31.4429,8.47 -47.334,5.6816 -29.0926,-5.105 -45.4036,-21.0271 -55.4571,-54.1328 -3.0036,-9.8904 -3.0421,-10.9635 -3.5429,-97.9746 -0.3791,-65.8709 -0.9051,-88.2282 -2.0879,-88.9804 -0.9358,-0.5951 -22.8696,-0.9485 -44.9531,-1.0059 z" />
    </g>
  </g>
  <rect
     style="fill:#ffd42a;fill-opacity:0.973262;stroke-width:0.519086"
     id="rect1"
     width="839.86597"
     height="165.9702"
     x="0"
     y="551.58368" />
  <text
     xml:space="preserve"
     style="font-size:147.033px;font-family:'Lucida Fax';-inkscape-font-specification:'Lucida Fax';text-align:start;writing-mode:lr-tb;direction:ltr;text-anchor:start;fill:#000000;fill-opacity:0.973262;stroke-width:3.39885"
     x="34.709763"
     y="688.35364"
     id="text1"><tspan
       sodipodi:role="line"
       id="tspan1"
       x="34.709763"
       y="688.35364"
       style="stroke-width:3.39885">Beta Build</tspan></text>
</svg>
