<?xml version="1.0" encoding="UTF-8" standalone="no"?>
<!-- Created with Inkscape (http://www.inkscape.org/) -->

<svg
   width="727.42822"
   height="276.05121"
   viewBox="0 0 727.42822 276.05121"
   version="1.1"
   id="svg1"
   xml:space="preserve"
   xmlns="http://www.w3.org/2000/svg"
   xmlns:svg="http://www.w3.org/2000/svg"><defs
     id="defs1" /><g
     id="layer1"
     transform="translate(-2936.8879,1037.0171)"><rect
       style="opacity:1;fill:none;fill-opacity:0.976471;stroke:#000000;stroke-width:5.01432;stroke-dasharray:none;stroke-opacity:1"
       id="rect41"
       width="265.18155"
       height="80.31369"
       x="-3437.6143"
       y="-1034.5099"
       transform="scale(-1,1)" /><rect
       style="fill:none;fill-opacity:0.976471;stroke:#ffffff;stroke-width:5.01432;stroke-dasharray:none;stroke-opacity:1"
       id="rect41-9"
       width="265.18155"
       height="80.31369"
       x="-3437.6143"
       y="-938.74524"
       transform="scale(-1,1)" /><rect
       style="fill:none;fill-opacity:0.976471;stroke:#1e1e1f;stroke-width:5.01432;stroke-dasharray:none;stroke-opacity:1"
       id="rect41-9-8"
       width="265.18155"
       height="80.31369"
       x="-3437.6143"
       y="-843.78674"
       transform="scale(-1,1)" /><path
       id="path2-7-5-6-1-82"
       style="fill:#5599ff;fill-opacity:1;stroke:#5599ff;stroke-width:2.963;stroke-dasharray:none;stroke-opacity:1"
       d="m 3170.0169,-990.4082 a 3.270925,3.270925 0 0 0 3.9448,2.41582 3.270925,3.270925 0 0 0 2.4158,-3.94484 3.270925,3.270925 0 0 0 -3.9449,-2.41581 3.270925,3.270925 0 0 0 -2.4157,3.94483 z m 0.069,-0.55207 -184.4042,-0.65169" /><rect
       style="fill:#80b3ff;fill-opacity:0.973262;stroke:none;stroke-width:4.59669;stroke-dasharray:none"
       id="rect2-5-9-9-6-8-8-5"
       width="97.263191"
       height="29.755892"
       x="2945.6326"
       y="-1006.2742"
       ry="5.4078126" /><text
       xml:space="preserve"
       style="font-size:20.4938px;font-family:'Lucida Fax';-inkscape-font-specification:'Lucida Fax';text-align:start;writing-mode:lr-tb;direction:ltr;text-anchor:start;fill:#000000;fill-opacity:0.973262;stroke:none;stroke-width:1.62651;stroke-dasharray:none"
       x="2968.4346"
       y="-983.93823"
       id="text2-0-1-8-8-6-2"><tspan
         id="tspan2-2-3-18-1-2-0"
         x="2968.4346"
         y="-983.93823"
         style="fill:#000000;stroke-width:1.62651">black</tspan></text><path
       id="path2-7-5-6-1-82-3"
       style="fill:#5599ff;fill-opacity:1;stroke:#5599ff;stroke-width:2.963;stroke-dasharray:none;stroke-opacity:1"
       d="m 3441.3718,-894.84325 a 3.270925,3.270925 0 0 1 -3.9448,2.41582 3.270925,3.270925 0 0 1 -2.4158,-3.94484 3.270925,3.270925 0 0 1 3.9449,-2.41581 3.270925,3.270925 0 0 1 2.4157,3.94483 z m -0.069,-0.55207 184.4042,-0.65169" /><rect
       style="fill:#80b3ff;fill-opacity:0.973262;stroke:none;stroke-width:4.59669;stroke-dasharray:none"
       id="rect2-5-9-9-6-8-8-5-5"
       width="97.263191"
       height="29.755892"
       x="3567.053"
       y="-910.70929"
       ry="5.4078126" /><text
       xml:space="preserve"
       style="font-size:20.4938px;font-family:'Lucida Fax';-inkscape-font-specification:'Lucida Fax';text-align:start;writing-mode:lr-tb;direction:ltr;text-anchor:start;fill:#000000;fill-opacity:0.973262;stroke:none;stroke-width:1.62651;stroke-dasharray:none"
       x="3589.855"
       y="-888.37335"
       id="text2-0-1-8-8-6-2-1"><tspan
         id="tspan2-2-3-18-1-2-0-2"
         x="3589.855"
         y="-888.37335"
         style="fill:#000000;stroke-width:1.62651">white</tspan></text><path
       id="path2-7-5-6-1-82-4"
       style="fill:#5599ff;fill-opacity:1;stroke:#5599ff;stroke-width:2.963;stroke-dasharray:none;stroke-opacity:1"
       d="m 3167.5169,-799.92874 a 3.270925,3.270925 0 0 0 3.9448,2.41582 3.270925,3.270925 0 0 0 2.4158,-3.94484 3.270925,3.270925 0 0 0 -3.9449,-2.41581 3.270925,3.270925 0 0 0 -2.4157,3.94483 z m 0.069,-0.55207 -184.4042,-0.65169" /><rect
       style="fill:#80b3ff;fill-opacity:0.973262;stroke:none;stroke-width:4.92898;stroke-dasharray:none"
       id="rect2-5-9-9-6-8-8-5-3"
       width="111.83368"
       height="29.755892"
       x="2936.8879"
       y="-815.79474"
       ry="5.4078126" /><text
       xml:space="preserve"
       style="font-size:20.4938px;font-family:'Lucida Fax';-inkscape-font-specification:'Lucida Fax';text-align:start;writing-mode:lr-tb;direction:ltr;text-anchor:start;fill:#000000;fill-opacity:0.973262;stroke:none;stroke-width:1.62651;stroke-dasharray:none"
       x="2950.1746"
       y="-794.35089"
       id="text2-0-1-8-8-6-2-2"><tspan
         id="tspan2-2-3-18-1-2-0-1"
         x="2950.1746"
         y="-794.35089"
         style="fill:#000000;stroke-width:1.62651">gray100</tspan></text></g></svg>
